REM DIRINDEX 1\2,1\3,1\4,1\5,1\6
REM DIRNAME folder01,folder02,folder03,folder04,folder05,folder06
TITLE ""
FILE "DISC2Track03.mp3" MP3
  TRACK 01 AUDIO
    TITLE "0:"
    INDEX 01 00:00:00
  TRACK 02 AUDIO
    TITLE "3:cjc129_0993"
    INDEX 01 00:00:05
  TRACK 03 AUDIO
    TITLE "0:"
    INDEX 01 00:01:48
  TRACK 04 AUDIO
    TITLE "5:cjc129_0994"
    INDEX 01 00:02:04
  TRACK 05 AUDIO
    TITLE "0:"
    INDEX 01 00:03:64
  TRACK 06 AUDIO
    TITLE "4:cjc129_0995"
    INDEX 01 00:04:52
  TRACK 07 AUDIO
    TITLE "0:"
    INDEX 01 00:06:16
  TRACK 08 AUDIO
    TITLE "6:cjc129_0996"
    INDEX 01 00:06:51
  TRACK 09 AUDIO
    TITLE "0:"
    INDEX 01 00:12:24
  TRACK 10 AUDIO
    TITLE "3:cjc129_0997"
    INDEX 01 00:13:73
  TRACK 11 AUDIO
    TITLE "0:"
    INDEX 01 00:15:40
  TRACK 12 AUDIO
    TITLE "5:cjc129_0998"
    INDEX 01 00:15:70
  TRACK 13 AUDIO
    TITLE "0:"
    INDEX 01 00:17:53
  TRACK 14 AUDIO
    TITLE "4:cjc129_0999"
    INDEX 01 00:18:44
  TRACK 15 AUDIO
    TITLE "0:"
    INDEX 01 00:20:10
  TRACK 16 AUDIO
    TITLE "6:cjc129_1000"
    INDEX 01 00:20:41
  TRACK 17 AUDIO
    TITLE "0:"
    INDEX 01 00:24:31
  TRACK 18 AUDIO
    TITLE "3:cjc129_1001"
    INDEX 01 00:26:07
  TRACK 19 AUDIO
    TITLE "0:"
    INDEX 01 00:29:70
  TRACK 20 AUDIO
    TITLE "5:cjc129_1002"
    INDEX 01 00:30:28
  TRACK 21 AUDIO
    TITLE "0:"
    INDEX 01 00:32:52
  TRACK 22 AUDIO
    TITLE "4:cjc129_1003"
    INDEX 01 00:33:42
  TRACK 23 AUDIO
    TITLE "0:"
    INDEX 01 00:37:32
  TRACK 24 AUDIO
    TITLE "6:cjc129_1004"
    INDEX 01 00:37:61
  TRACK 25 AUDIO
    TITLE "0:"
    INDEX 01 00:42:66
  TRACK 26 AUDIO
    TITLE "3:cjc129_1005"
    INDEX 01 00:44:40
  TRACK 27 AUDIO
    TITLE "0:"
    INDEX 01 00:48:10
  TRACK 28 AUDIO
    TITLE "5:cjc129_1006"
    INDEX 01 00:48:42
  TRACK 29 AUDIO
    TITLE "0:"
    INDEX 01 00:50:70
  TRACK 30 AUDIO
    TITLE "4:cjc129_1007"
    INDEX 01 00:51:60
  TRACK 31 AUDIO
    TITLE "0:"
    INDEX 01 00:55:32
  TRACK 32 AUDIO
    TITLE "6:cjc129_1008"
    INDEX 01 00:55:63
  TRACK 33 AUDIO
    TITLE "0:"
    INDEX 01 00:59:59
  TRACK 34 AUDIO
    TITLE "3:cjc129_1009"
    INDEX 01 01:01:36
  TRACK 35 AUDIO
    TITLE "0:"
    INDEX 01 01:03:08
  TRACK 36 AUDIO
    TITLE "5:cjc129_1010"
    INDEX 01 01:03:39
  TRACK 37 AUDIO
    TITLE "0:"
    INDEX 01 01:05:44
  TRACK 38 AUDIO
    TITLE "4:cjc129_1011"
    INDEX 01 01:06:34
  TRACK 39 AUDIO
    TITLE "0:"
    INDEX 01 01:08:07
  TRACK 40 AUDIO
    TITLE "6:cjc129_1012"
    INDEX 01 01:08:36
  TRACK 41 AUDIO
    TITLE "0:"
    INDEX 01 01:11:25
  TRACK 42 AUDIO
    TITLE "3:cjc129_1013"
    INDEX 01 01:13:00
  TRACK 43 AUDIO
    TITLE "0:"
    INDEX 01 01:14:47
  TRACK 44 AUDIO
    TITLE "5:cjc129_1014"
    INDEX 01 01:15:01
  TRACK 45 AUDIO
    TITLE "0:"
    INDEX 01 01:17:20
  TRACK 46 AUDIO
    TITLE "4:cjc129_1015"
    INDEX 01 01:18:11
  TRACK 47 AUDIO
    TITLE "0:"
    INDEX 01 01:19:56
  TRACK 48 AUDIO
    TITLE "6:cjc129_1016"
    INDEX 01 01:20:12
  TRACK 49 AUDIO
    TITLE "0:"
    INDEX 01 01:24:14
  TRACK 50 AUDIO
    TITLE "3:cjc129_1017"
    INDEX 01 01:25:62
  TRACK 51 AUDIO
    TITLE "0:"
    INDEX 01 01:29:03
  TRACK 52 AUDIO
    TITLE "5:cjc129_1018"
    INDEX 01 01:29:35
  TRACK 53 AUDIO
    TITLE "0:"
    INDEX 01 01:31:00
  TRACK 54 AUDIO
    TITLE "4:cjc129_1019"
    INDEX 01 01:31:67
  TRACK 55 AUDIO
    TITLE "0:"
    INDEX 01 01:35:04
  TRACK 56 AUDIO
    TITLE "6:cjc129_1020"
    INDEX 01 01:35:39
  TRACK 57 AUDIO
    TITLE "0:"
    INDEX 01 01:41:44
  TRACK 58 AUDIO
    TITLE "3:cjc129_1021"
    INDEX 01 01:43:21
  TRACK 59 AUDIO
    TITLE "0:"
    INDEX 01 01:44:62
  TRACK 60 AUDIO
    TITLE "5:cjc129_1022"
    INDEX 01 01:45:16
  TRACK 61 AUDIO
    TITLE "0:"
    INDEX 01 01:47:13
  TRACK 62 AUDIO
    TITLE "4:cjc129_1023"
    INDEX 01 01:48:05
  TRACK 63 AUDIO
    TITLE "0:"
    INDEX 01 01:49:45
  TRACK 64 AUDIO
    TITLE "6:cjc129_1024"
    INDEX 01 01:50:00
  TRACK 65 AUDIO
    TITLE "0:"
    INDEX 01 01:54:35
